<?xml version="1.0" encoding="UTF-8" standalone="no"?>
<!-- Created with Inkscape (http://www.inkscape.org/) -->

<svg
   xmlns:dc="http://purl.org/dc/elements/1.1/"
   xmlns:cc="http://creativecommons.org/ns#"
   xmlns:rdf="http://www.w3.org/1999/02/22-rdf-syntax-ns#"
   xmlns:svg="http://www.w3.org/2000/svg"
   xmlns="http://www.w3.org/2000/svg"
   xmlns:sodipodi="http://sodipodi.sourceforge.net/DTD/sodipodi-0.dtd"
   xmlns:inkscape="http://www.inkscape.org/namespaces/inkscape"
   version="1.1"
   id="svg2"
   width="835"
   height="566"
   viewBox="0 0 835 566"
   sodipodi:docname="korona.svg"
   inkscape:version="0.92.4 (5da689c313, 2019-01-14)">
  <metadata
     id="metadata8">
    <rdf:RDF>
      <cc:Work
         rdf:about="">
        <dc:format>image/svg+xml</dc:format>
        <dc:type
           rdf:resource="http://purl.org/dc/dcmitype/StillImage" />
        <dc:title></dc:title>
      </cc:Work>
    </rdf:RDF>
  </metadata>
  <defs
     id="defs6" />
  <sodipodi:namedview
     pagecolor="#ffffff"
     bordercolor="#666666"
     borderopacity="1"
     objecttolerance="10"
     gridtolerance="10"
     guidetolerance="10"
     inkscape:pageopacity="0"
     inkscape:pageshadow="2"
     inkscape:window-width="1366"
     inkscape:window-height="745"
     id="namedview4"
     showgrid="false"
     inkscape:zoom="0.57875767"
     inkscape:cx="417.5"
     inkscape:cy="283"
     inkscape:window-x="344"
     inkscape:window-y="1072"
     inkscape:window-maximized="1"
     inkscape:current-layer="svg2" />
  <path
     style="fill:#fdba48"
     d="m 112.19685,560.45103 c -4.93907,-1.52175 -10.86622,-6.61423 -13.673105,-11.74763 -1.5748,-2.88009 -1.75158,-6.7511 -1.75158,-38.35499 v -35.15159 l 3.12601,-4.34841 C 101.61748,468.45678 105.18217,465.15 107.81971,463.5 l 4.79553,-3 303.45355,-0.25486 c 320.63963,-0.26929 307.84761,-0.45867 314.91654,4.66204 8.29762,6.01077 8.74476,8.18038 9.08715,44.09282 0.38196,40.06311 -1.61214,46.68127 -15.49021,51.41 -6.68237,2.27691 -604.9984,2.31699 -612.38542,0.041 z M 103.27216,408.4712 c -4.578205,-2.06873 -8.715705,-6.06231 -11.116115,-10.72945 -1.59136,-3.0941 -51.13817,-199.75216 -53.41115,-211.99614 -0.63406,-3.41555 -1.33742,-4.09094 -7.79359,-7.48356 -44.67994,-23.47864 -28.0449102,-91.262046 22.39702,-91.262046 41.40182,0 63.270805,47.902336 36.56884,80.101226 -2.55475,3.08067 -4.645,6.02537 -4.645,6.54377 0,2.63381 71.726075,72.10507 78.499995,76.03222 40.28748,23.35654 86.3566,14.15684 115.27816,-23.02029 20.39236,-26.21329 102.22184,-135.758196 102.22184,-136.844106 0,-0.67426 -1.8394,-3.84818 -4.08755,-7.05315 -28.54631,-40.69556 16.16837,-92.7193799 61.16024,-71.1576 26.11324,12.51443 34.96346,45.46559 18.89058,70.33345 -5.12279,7.92596 -6.10535,5.48709 12.00536,29.799166 60.2488,80.87888 92.33463,123.27255 95.66269,126.39511 30.92364,29.0142 75.96422,32.35228 110.27993,8.17314 6.38605,-4.49967 71.21562,-67.91506 73.26204,-71.66392 0.82484,-1.51103 0.3581,-2.54529 -2.48203,-5.5 -37.55249,-39.06751 7.49994,-101.384096 56.08149,-77.571996 35.51052,17.405376 35.9292,67.321596 0.72725,86.704796 -4.52927,2.49395 -6.06672,3.90731 -6.2722,5.76597 -0.14971,1.35422 -12.04063,49.69023 -26.42427,107.41337 l -26.15207,104.95116 -5.07573,5.20254 c -3.20432,3.28437 -6.55052,5.64624 -9.07573,6.40597 -6.95099,2.09126 -621.89073,2.54315 -626.5,0.46037 z"
     id="path833"
     inkscape:connector-curvature="0" />
</svg>
